<svg width="22" height="16" xmlns="http://www.w3.org/2000/svg" xmlns:xlink="http://www.w3.org/1999/xlink"><defs><rect id="a" x="0" y="0" width="21" height="15" rx="2"/><rect id="c" x="0" y="0" width="21" height="15" rx="2"/><rect id="e" x="0" y="0" width="21" height="15" rx="2"/><rect id="g" x="0" y="0" width="21" height="15" rx="2"/><rect id="i" x="0" y="0" width="21" height="15" rx="2"/><rect id="k" x="0" y="0" width="21" height="15" rx="2"/></defs><g fill="none" fill-rule="evenodd"><rect width="21" height="15" rx="2" fill="#22438B" fill-rule="nonzero"/><mask id="b" fill="#fff"><use xlink:href="#a"/></mask><path fill="#FFF" fill-rule="nonzero" mask="url(#b)" d="M3.022 1L1 1.026l.026 1.97L17.968 14 20 13.963l-.037-1.959z"/><mask id="d" fill="#fff"><use xlink:href="#c"/></mask><path fill="#C7152A" fill-rule="nonzero" mask="url(#d)" d="M2 1L1 2l18 12 1-1z"/><mask id="f" fill="#fff"><use xlink:href="#e"/></mask><path d="M18.014 1H20v1.993S8.334 10.36 3.138 13.98c-.063.044-1.984.003-1.984.003L1 12.086 18.014 1z" fill="#FFF" fill-rule="nonzero" mask="url(#f)"/><mask id="h" fill="#fff"><use xlink:href="#g"/></mask><path fill="#C7152A" fill-rule="nonzero" mask="url(#h)" d="M19.043 1L20 2.026 2 14l-1-.998z"/><mask id="j" fill="#fff"><use xlink:href="#i"/></mask><path fill="#FFF" fill-rule="nonzero" mask="url(#j)" d="M8 1h5v4h7v5h-7v4H8v-4H1V5h7z"/><mask id="l" fill="#fff"><use xlink:href="#k"/></mask><path fill="#C7152A" fill-rule="nonzero" mask="url(#l)" d="M9 1h3v5h8v3h-8v5H9V9H1V6h8z"/><rect width="20" height="14" rx="1" transform="translate(1 1)" stroke="#2F343A" stroke-opacity=".157"/></g></svg>