<svg width="28" height="29" xmlns="http://www.w3.org/2000/svg"><g fill="#FFF" fill-rule="evenodd"><path d="M18.63 25.543l4.371 3.387v-3.387h4.972V10.245h-9.889V.028H0v15.298h4.972v3.386l4.37-3.386h.547v10.217h8.741zm7.704-1.694h-4.972v1.694l-2.185-1.694h-7.65V11.94h14.807v11.91zM8.796 13.632l-2.185 1.694v-1.694H1.639V1.722h14.806v8.523h-3.591l-3.785-7.82-4.01 8.288 1.465.758 1.003-2.072h3.085l.41.846H9.888v3.387H8.796zm.996-5.927H8.346l.723-1.493.723 1.493z"/><path d="M18.238 18.964c-.965.813-1.877 1.236-2.338 1.236V22c1.16 0 2.553-.849 3.6-1.748 1.047.9 2.44 1.748 3.6 1.748v-1.8c-.461 0-1.373-.423-2.338-1.236.523-.635 1.073-1.467 1.313-2.364H24v-1.8h-3.6V13h-1.8v1.8H15v1.8h1.925c.24.897.79 1.729 1.313 2.364zm1.262-1.301a5.552 5.552 0 01-.664-1.064h1.328c-.154.336-.38.699-.664 1.064z"/></g></svg>