<svg width="161" height="46" xmlns="http://www.w3.org/2000/svg" xmlns:xlink="http://www.w3.org/1999/xlink"><defs><path id="a" d="M0 .268h49.976v38.478H0z"/><path id="c" d="M.178.147h23.707v25.578H.178z"/><path id="e" d="M.16.163h4.686V6H.16z"/><path id="g" d="M.178.163h4.686V6H.178z"/><path id="i" d="M0 .163h4.933V6H0z"/></defs><g fill="none" fill-rule="evenodd"><path d="M17 45.115c2 .572 4.11.885 6.294.885C33.54 46 42.197 39.256 45 30c-3.213 7.893-11.01 13.464-20.12 13.464-.68 0-1.352-.036-2.016-.096a44.901 44.901 0 01-3.059 1.028 39.35 39.35 0 01-2.805.719m-1.323-3.629a21.61 21.61 0 01-12.14-19.448A21.604 21.604 0 0117 2C7.744 4.792 1 13.413 1 23.617c0 7.581 3.726 14.284 9.436 18.376 1.735.047 3.518-.158 5.24-.507" fill="#F89B22"/><path d="M24 37.98a54.46 54.46 0 01-.64-1.98 29.13 29.13 0 01-2.098.079c-.423 0-.843-.012-1.262-.03.12.61.272 1.212.452 1.805a23.905 23.905 0 003.548.127m.405.019c.458-.025.912-.062 1.364-.104l.387-.573c.294-.435.576-.876.844-1.323a43.85 43.85 0 01-3 .348c.127.553.263 1.104.405 1.652M8 34a23.782 23.782 0 004 2c-.242-.286-.472-.58-.695-.88A29.756 29.756 0 018 34m26.316-21.675a3.288 3.288 0 01-.316.373c.19.758.362 1.525.514 2.302.265-.088.529-.178.79-.274.277-.514.47-1.109.61-1.665.033-.128.057-.26.086-.391a33.458 33.458 0 00-.95-2.67c-.028.843-.257 1.659-.734 2.325M34 38c-.482.326-.97.643-1.46.954A38.49 38.49 0 0131 42a29.704 29.704 0 003-4M27 0a41.32 41.32 0 012.703 3.935L31 4a31.95 31.95 0 00-4-4m-4 8.137L21.508 8c-.185.743-.355 1.49-.508 2.24.574.212 1.14.476 1.687.76.09-.955.195-1.91.313-2.863m1 29.91c.116.318.232.637.355.953.215-.1.431-.198.645-.302-.049-.232-.095-.465-.142-.698-.285.02-.57.036-.858.047M22.93 23a36.982 36.982 0 00-.93 1.959c.332.02.666.033 1 .041a153.48 153.48 0 01-.07-2m.042 4.125A31.313 31.313 0 0121 27a47.627 47.627 0 001.86 8 30.36 30.36 0 001.14-.097 83.9 83.9 0 01-1.028-7.778M25 1a40.283 40.283 0 00-3 7l1.65-.718A74.54 74.54 0 0125 1m-3.3 17c-.176.418-.41.812-.684 1.175A57.7 57.7 0 0021.002 21l.185-.115c.604-.377 1.205-.76 1.813-1.132h-1.399l.1-1.753zm1.3-3.932c-.564-.71-1.144-1.4-1.732-2.068-.1.639-.189 1.28-.268 1.922L22.946 15c.016-.31.036-.622.054-.932" fill="#C5C5DA"/><path d="M23 36.102c.265.637.548 1.27.846 1.898A43.21 43.21 0 0025 37.952 68.025 68.025 0 0124.521 36c-.504.041-1.011.075-1.521.102" fill="#C5C5DA"/><path d="M23 36.102c.265.637.548 1.27.846 1.898A43.21 43.21 0 0025 37.952 68.025 68.025 0 0124.521 36c-.504.041-1.011.075-1.521.102M20.765 26c-.266.308-.522.62-.765.935.333.023.665.046 1 .065-.08-.334-.164-.666-.235-1M40 23c1.332-.774 2.6-1.63 3.797-2.56.07-.146.137-.293.203-.44a48.604 48.604 0 01-3.677 1.685c-.094.441-.202.88-.323 1.315m-17 2.315c.047.89.105 1.776.174 2.66.35.012.698.025 1.05.025 1.624 0 3.219-.135 4.776-.393 0-.883-.068-1.75-.198-2.607a40.155 40.155 0 01-5.068.326c-.245 0-.49-.007-.734-.011M4 21a32.944 32.944 0 003.987 3c-.003-.364 0-.727.013-1.09A43.37 43.37 0 014 21m19 6a64.466 64.466 0 01-.162-1.972A47.622 47.622 0 0121.772 25c-.272.39-.531.791-.772 1.203.033.23.072.46.11.691.624.053 1.254.088 1.89.106" fill="#C5C5DA"/><path d="M23 27a64.466 64.466 0 01-.162-1.972A47.622 47.622 0 0121.772 25c-.272.39-.531.791-.772 1.203.033.23.072.46.11.691.624.053 1.254.088 1.89.106m18-14.647c.03.216.06.431.085.647A28.66 28.66 0 0043 11c-.653.476-1.32.927-2 1.353m-15 5.62A45.806 45.806 0 0025.016 16L23 16.24l.074 1.66c.678.061 1.36.1 2.051.1.293 0 .584-.016.875-.027m5-2.283c.771.265 1.658.442 2.41.184.218-.074.413-.184.59-.317a35.091 35.091 0 00-.12-.557 32.63 32.63 0 01-2.88.69m-17 .26L12.007 15l-.007.319c.639.244 1.292.472 1.961.681.014-.016.025-.034.039-.05" fill="#C5C5DA"/><path d="M42.501 11.499a.002.002 0 00-.002.002l.002-.002zM9.906 13.313A27.816 27.816 0 018 12a26.129 26.129 0 001.821 2c.06-.196.117-.394.179-.589l-.094-.098zM35.146 15c.34-.266.62-.612.854-1a34 34 0 01-1 .308c.05.23.098.461.146.692" fill="#C5C5DA"/><path d="M35.146 15c.34-.266.62-.612.854-1a34 34 0 01-1 .308c.05.23.098.461.146.692" fill="#C5C5DA"/><path d="M26 18.474C20.55 20.004 10.737 31.457 11.513 13c-5.218 9.81-2.11 21.117 7.457 27 .116-.036.231-.071.346-.108.215-.069.43-.139.644-.211l.264-.092c-2.932-6.404-2.679-12.48 5.776-21.115" fill="#204183"/><path d="M14.808 15.068a3.983 3.983 0 00-.892 1.66C13.47 18.535 14.683 20 16.622 20s3.87-1.465 4.315-3.272c.071-.289.1-.568.09-.835l1.175-.099-.176 2.791h.743l-.179-2.824 1.41-.119L18.605 13 12 13.308l2.808 1.76z" fill="#204183"/><g transform="translate(0 7)"><mask id="b" fill="#fff"><use xlink:href="#a"/></mask><path d="M19.825 37.36c13.5-3.953 26.755-15.158 29.606-25.025C51.515 5.125 47.466.626 39.866.268c.156.348.304.698.445 1.052 4.877 1.285 7.21 5.073 5.613 10.598-2.613 9.044-14.762 19.313-27.136 22.936-8.64 2.53-15.099 1.148-17.323-2.994-.961-1.79-1.137-4.091-.348-6.82l.061-.2c-.248.607-.46 1.212-.634 1.813-.765 2.647-.703 4.93.058 6.775 2.075 5.034 9.345 6.825 19.223 3.932" fill="#204183" mask="url(#b)"/></g><path d="M26.851 37c.377-.203.75-.41 1.118-.623 3.381-1.94 6.634-4.335 9.463-7.068 4.1-6.64 4.638-14.917 1.761-22.368l-.104-.241-.534-1.21.03.002c-.228-.502-.47-1-.729-1.492.904 21.672-10.515 8.223-16.856 6.427C31.61 21.362 31.12 28.802 26.851 37" fill="#F89B22"/><path d="M25.334 10.383h.804l-.191-3.19 1.274.114c-.01.304.02.624.097.953.481 2.065 2.574 3.74 4.675 3.74 2.1 0 3.413-1.675 2.931-3.74a4.63 4.63 0 00-.966-1.896L37 4.352 29.844 4 24 7.02l1.527.136-.193 3.227z" fill="#F89B22"/><path fill="#204183" d="M48 36l7.799-32H76l-1.175 4.849H60.482l-1.941 8.034h12.714L70.08 21.64H57.44l-2.346 9.512h15.41L69.328 36z"/><path d="M88.38 16.299c-.593-.125-1.312-.188-2.154-.188-1.437 0-2.748.305-3.935.914a9.634 9.634 0 00-3.044 2.435 11.047 11.047 0 00-1.943 3.49 12.403 12.403 0 00-.679 4.074c0 .719.07 1.39.211 2.014.14.625.367 1.17.68 1.64.312.468.726.842 1.242 1.123s1.148.422 1.898.422c1 0 1.882-.203 2.649-.609.765-.405 1.492-.968 2.18-1.686.03-.656.1-1.342.21-2.061.108-.718.24-1.42.396-2.107l2.289-9.461zM79.344 37c-1.47 0-2.735-.242-3.797-.726-1.063-.484-1.93-1.147-2.602-1.99-.672-.844-1.164-1.842-1.476-2.998-.313-1.155-.469-2.404-.469-3.747 0-2.091.368-4.113 1.103-6.065.736-1.95 1.784-3.669 3.144-5.152 1.361-1.483 3.027-2.67 4.999-3.56 1.97-.89 4.207-1.334 6.71-1.334.313 0 .69.016 1.127.047a9.4 9.4 0 011.455.234L92.094.937 98 0l-6.422 26.556a20.272 20.272 0 00-.352 2.178 19.71 19.71 0 00-.117 2.084c0 .843.078 1.686.235 2.529.156.843.406 1.717.75 2.622l-5.063.75c-.344-.656-.64-1.452-.89-2.389-.782.688-1.735 1.304-2.86 1.85-1.125.546-2.437.82-3.937.82zM119 12l-3.545 14.506c-.16.715-.28 1.43-.36 2.145-.08.716-.119 1.43-.119 2.146 0 .902.072 1.788.216 2.658.143.87.39 1.726.742 2.565l-5.173.747a6.908 6.908 0 01-.503-1.143c-.144-.42-.28-.847-.408-1.283-.798.623-1.789 1.22-2.97 1.796-1.181.575-2.555.863-4.12.863-1.405 0-2.603-.203-3.592-.606-.99-.404-1.797-.956-2.42-1.656a6.243 6.243 0 01-1.34-2.472A10.874 10.874 0 0195 29.257c0-1.368.192-2.845.575-4.43L98.736 12h5.797l-3.128 12.686c-.406 1.618-.608 2.939-.608 3.965 0 .498.048.964.143 1.4.096.435.264.816.505 1.142.24.326.576.583 1.009.77.432.186.969.28 1.61.28 1.057 0 2.002-.21 2.835-.63a8.79 8.79 0 002.306-1.703 23.78 23.78 0 01.673-4.104L113.203 12H119z" fill="#204183"/><path d="M125.11 11l3.913 8.438a116.596 116.596 0 003.337-4.315A69.565 69.565 0 00135.181 11H141a101.876 101.876 0 01-4.37 6.032 118.297 118.297 0 01-5.216 6.222 142.408 142.408 0 013.107 6.445A73.112 73.112 0 01137.016 36h-5.692a58.894 58.894 0 00-1.72-4.489 90.478 90.478 0 00-1.957-4.25L120.187 36H114l11.003-12.987L119.156 11h5.954z" fill="#204183"/><g transform="translate(137 11)"><mask id="d" fill="#fff"><use xlink:href="#c"/></mask><path d="M17.444 5.01a9.857 9.857 0 00-2.013-.187c-1.404 0-2.7.304-3.885.912A9.888 9.888 0 008.48 8.167a11.132 11.132 0 00-1.989 3.483 12.121 12.121 0 00-.702 4.115c0 .717.062 1.387.187 2.01.125.625.335 1.17.631 1.637A3.29 3.29 0 007.8 20.534c.498.281 1.138.421 1.917.421.997 0 1.878-.21 2.642-.631a8.324 8.324 0 002.127-1.707c.031-.81.101-1.573.21-2.29.11-.718.258-1.435.445-2.152l2.303-9.165zm3.075 10.568c-.094.343-.188.904-.281 1.683a18.53 18.53 0 00-.14 2.198c0 .905.077 1.785.233 2.642.156.858.405 1.723.749 2.595l-5.05.748a12.107 12.107 0 01-.89-2.385c-.779.687-1.737 1.302-2.875 1.847-1.138.545-2.424.819-3.857.819-1.466 0-2.72-.242-3.764-.725-1.045-.483-1.894-1.153-2.549-2.01-.654-.858-1.138-1.863-1.45-3.017-.311-1.153-.467-2.4-.467-3.74 0-2.275.405-4.396 1.216-6.36.81-1.964 1.94-3.662 3.39-5.096 1.45-1.434 3.171-2.564 5.167-3.39C11.945.56 14.128.146 16.497.146c1.216 0 2.439.102 3.67.304a15.01 15.01 0 013.718 1.146l-3.366 13.98z" fill="#204183" mask="url(#d)"/></g><path d="M48.86 44.304a2.8 2.8 0 00.546-.054c.181-.036.343-.095.485-.178.143-.083.259-.192.347-.327a.894.894 0 00.134-.502.737.737 0 00-.084-.36.944.944 0 00-.232-.274 1.987 1.987 0 00-.347-.223c-.133-.07-.28-.143-.44-.22a8.435 8.435 0 01-.414-.216 1.597 1.597 0 01-.374-.285 1.358 1.358 0 01-.267-.403 1.366 1.366 0 01-.102-.555c0-.248.052-.478.156-.687.104-.21.256-.391.458-.543.202-.152.45-.27.743-.353a3.74 3.74 0 011.01-.124 3.334 3.334 0 01.947.133c.134.039.25.078.351.12.101.041.176.079.223.112l-.4.63c-.101-.078-.263-.148-.485-.211a2.875 2.875 0 00-.788-.096c-.19 0-.366.018-.53.054a1.279 1.279 0 00-.421.17.817.817 0 00-.391.721.803.803 0 00.07.36.832.832 0 00.196.257c.083.075.185.142.307.203.121.061.253.125.396.19.178.084.345.168.503.254.156.085.294.186.413.302.119.116.212.251.28.406.069.155.103.343.103.563 0 .305-.064.57-.192.8-.127.23-.302.42-.524.572a2.456 2.456 0 01-.792.344 4.033 4.033 0 01-.992.116c-.238 0-.453-.015-.645-.046a3.742 3.742 0 01-.507-.111 2.78 2.78 0 01-.37-.137 1.443 1.443 0 01-.231-.128l.4-.655c.113.072.29.153.534.244.244.091.552.137.926.137m4.362.696c-.421 0-.73-.095-.927-.285-.197-.19-.295-.466-.295-.829 0-.236.04-.538.118-.906l.902-3.842.817-.138-.329 1.39H55l-.16.673h-1.492l-.463 1.986c-.068.27-.101.506-.101.708 0 .19.05.327.152.41.1.084.269.125.505.125.163 0 .323-.027.48-.082.158-.054.279-.105.363-.151l.059.682a2.423 2.423 0 01-1.121.259m4.068 0c-.243 0-.445-.033-.608-.098a.97.97 0 01-.616-.653 1.688 1.688 0 01-.066-.48c0-.13.013-.259.037-.386.025-.128.054-.257.087-.386l.53-1.997h.767l-.487 1.846c-.028.115-.063.25-.108.405-.044.155-.066.31-.066.465 0 .09.01.177.03.26a.517.517 0 00.318.367.839.839 0 00.33.056c.237 0 .445-.045.624-.139.179-.092.33-.2.45-.326.006-.08.014-.162.025-.247.011-.085.03-.178.058-.278L59.231 41H60l-.653 2.469a6.07 6.07 0 00-.07.334 1.851 1.851 0 00.12 1.054l-.678.09a2.249 2.249 0 01-.083-.187 1.343 1.343 0 01-.066-.225 2.7 2.7 0 01-.215.157 1.672 1.672 0 01-.285.15 2.192 2.192 0 01-.355.113c-.13.03-.272.045-.426.045m4.414-.701c.252 0 .466-.052.644-.155.177-.104.332-.224.464-.36a4.286 4.286 0 01.1-.665l.54-2.218a1.075 1.075 0 00-.18-.022 4.31 4.31 0 00-.19-.005 2.152 2.152 0 00-1.635.719 2.328 2.328 0 00-.45.759 2.596 2.596 0 00-.158.9c0 .136.015.266.045.39.03.125.078.235.144.333a.72.72 0 00.266.235c.11.06.248.089.41.089m1.91-.328a2.404 2.404 0 00.162.86l-.739.106a1.788 1.788 0 01-.153-.47c-.132.119-.31.237-.532.355-.222.119-.495.178-.82.178-.264 0-.492-.04-.684-.12a1.241 1.241 0 01-.478-.342 1.416 1.416 0 01-.279-.527 2.354 2.354 0 01-.09-.67c0-.396.068-.784.203-1.163a3 3 0 01.603-1.011 2.978 2.978 0 011.005-.714c.402-.18.87-.27 1.405-.27a2.355 2.355 0 01.406.035l.504-2.076L65 38l-1.27 5.19c-.03.137-.057.266-.081.39a2.043 2.043 0 00-.036.39" fill="#F89B22"/><g transform="translate(64 40)"><mask id="f" fill="#fff"><use xlink:href="#e"/></mask><path d="M2.707 3.757c.191-.33.365-.672.521-1.026A17.065 17.065 0 003.938.82c.081-.273.139-.491.175-.656h.733a16.068 16.068 0 01-.601 1.785c-.144.36-.305.728-.484 1.104-.179.377-.374.738-.585 1.085-.162.258-.323.501-.484.73a3.66 3.66 0 01-.518.593c-.184.168-.387.3-.608.395A1.858 1.858 0 01.818 6c-.141 0-.272-.02-.393-.058a.856.856 0 01-.265-.124l.242-.626c.05.044.118.081.204.111s.181.046.287.046a1.2 1.2 0 00.745-.231c.204-.154.396-.358.578-.61a18.932 18.932 0 01-.457-2.102A17.793 17.793 0 011.543.163h.718a17.787 17.787 0 00.125 1.727c.037.316.083.634.136.952.053.32.114.624.185.915" fill="#F89B22" mask="url(#f)"/></g><path d="M72.222 45c-.421 0-.73-.095-.927-.285-.197-.19-.295-.466-.295-.829 0-.236.04-.538.118-.906l.902-3.842.817-.138-.329 1.39H74l-.16.673h-1.492l-.463 1.986a2.98 2.98 0 00-.101.708c0 .19.05.327.152.41.1.084.27.125.505.125.163 0 .323-.027.48-.082.157-.054.278-.105.363-.151l.059.682a2.424 2.424 0 01-1.12.259M75 45l1.51-6.856.8-.144-.529 2.373c.127-.049.26-.088.4-.118s.282-.045.425-.045c.248 0 .46.038.64.113a1.126 1.126 0 01.676.776c.052.183.078.383.078.6 0 .264-.038.565-.115.902L78.357 45h-.767l.486-2.219c.039-.168.076-.34.112-.514.035-.174.053-.34.053-.496 0-.241-.06-.44-.181-.6-.121-.16-.346-.24-.676-.24-.132 0-.268.014-.409.041-.14.027-.257.065-.35.113L75.767 45H75zm4.909-2.624c.337-.012.646-.035.925-.07.28-.033.521-.09.725-.173.204-.083.362-.194.476-.335.114-.14.17-.324.17-.55a.547.547 0 00-.03-.175.452.452 0 00-.105-.17.552.552 0 00-.205-.128.904.904 0 00-.323-.05c-.204 0-.395.046-.572.138a1.743 1.743 0 00-.477.362c-.14.15-.258.324-.358.523a2.9 2.9 0 00-.226.628m.83 2.624c-.298 0-.554-.045-.77-.134a1.513 1.513 0 01-.54-.366 1.48 1.48 0 01-.324-.546 2.056 2.056 0 01-.105-.66c0-.429.061-.841.183-1.24A3.47 3.47 0 0179.708 41c.227-.306.503-.549.83-.73a2.25 2.25 0 011.108-.27c.24 0 .444.032.616.097a1.052 1.052 0 01.66.642c.052.143.078.291.078.444 0 .288-.05.53-.148.73-.1.199-.23.365-.394.5a1.784 1.784 0 01-.571.312 4.817 4.817 0 01-.682.174 6.172 6.172 0 01-.716.087c-.241.016-.47.03-.685.041-.006.05-.01.089-.01.12v.073c0 .14.017.274.049.4a.755.755 0 00.18.33.881.881 0 00.361.224c.155.055.357.082.607.082.11 0 .226-.01.345-.031.12-.022.233-.05.341-.083a3.62 3.62 0 00.288-.101.637.637 0 00.179-.096l.07.724a2.79 2.79 0 01-.564.216 3.248 3.248 0 01-.912.115m5.502-5a2.935 2.935 0 01.425.034c.073.012.14.025.2.038a.62.62 0 01.135.04l-.203.61c-.1-.04-.216-.07-.346-.09a2.48 2.48 0 00-.376-.03 2.092 2.092 0 00-.579.083L84.7 44H84l.902-3.767c.2-.07.416-.126.647-.169.23-.043.46-.064.692-.064m1.667 2.376c.338-.012.647-.035.926-.07.28-.033.521-.09.725-.173a1.15 1.15 0 00.476-.335c.114-.14.17-.324.17-.55a.555.555 0 00-.03-.175.455.455 0 00-.105-.17.55.55 0 00-.205-.128.902.902 0 00-.324-.05c-.203 0-.394.046-.571.138a1.734 1.734 0 00-.477.362c-.14.15-.259.324-.358.523a2.939 2.939 0 00-.227.628m.83 2.624c-.297 0-.553-.045-.768-.134a1.51 1.51 0 01-.542-.366 1.48 1.48 0 01-.323-.546 2.048 2.048 0 01-.105-.66c0-.429.061-.841.183-1.24A3.47 3.47 0 0187.708 41c.227-.306.503-.549.83-.73a2.25 2.25 0 011.108-.27c.24 0 .444.032.616.097a1.052 1.052 0 01.66.642c.052.143.078.291.078.444 0 .288-.05.53-.148.73-.1.199-.23.365-.394.5a1.783 1.783 0 01-.571.312 4.797 4.797 0 01-.682.174 6.165 6.165 0 01-.716.087c-.241.016-.47.03-.686.041-.005.05-.008.089-.008.12v.073c0 .14.016.274.048.4a.755.755 0 00.18.33.881.881 0 00.361.224c.155.055.357.082.607.082.11 0 .226-.01.345-.031a3.686 3.686 0 00.63-.184.645.645 0 00.178-.096l.07.724c-.117.068-.304.14-.564.216a3.249 3.249 0 01-.912.115M93 44a2.445 2.445 0 01-.174.535 3.455 3.455 0 01-.303.531 4.25 4.25 0 01-.405.498 4.865 4.865 0 01-.472.436L91 45.81a3.22 3.22 0 00.374-.433 3.63 3.63 0 00.293-.476c.082-.161.15-.318.205-.472.054-.154.092-.297.112-.429H93zm3.534.286a2.1 2.1 0 00.388-.037c.131-.024.247-.064.348-.12a.615.615 0 00.342-.577.605.605 0 00-.046-.242.584.584 0 00-.146-.197 1.48 1.48 0 00-.251-.178c-.1-.058-.22-.124-.361-.197a5.41 5.41 0 01-.383-.201 1.39 1.39 0 01-.306-.238.967.967 0 01-.206-.326 1.25 1.25 0 01-.073-.453c0-.458.165-.826.493-1.103.33-.278.807-.417 1.434-.417.293 0 .55.029.772.087.222.058.376.111.461.16l-.32.696a2.02 2.02 0 00-.41-.155 2.233 2.233 0 00-.63-.083c-.117 0-.232.012-.347.037a.984.984 0 00-.316.124.68.68 0 00-.228.228.647.647 0 00-.087.344c0 .165.064.3.192.407.127.107.32.218.575.334.158.073.3.148.425.225.124.076.231.161.32.256a.955.955 0 01.2.334c.046.129.069.281.069.458a1.5 1.5 0 01-.146.678 1.338 1.338 0 01-.406.485 1.83 1.83 0 01-.617.289 2.977 2.977 0 01-.776.096 3.47 3.47 0 01-1-.138 2.018 2.018 0 01-.31-.114 3.352 3.352 0 01-.188-.096l.329-.696a2.562 2.562 0 00.803.293c.128.025.262.037.402.037m3.688.714c-.421 0-.73-.095-.927-.285-.197-.19-.295-.466-.295-.829 0-.236.04-.538.118-.906l.901-3.842.818-.138-.329 1.39H102l-.16.673h-1.492l-.463 1.986c-.067.27-.101.506-.101.708 0 .19.05.327.151.41.101.084.27.125.506.125.163 0 .323-.027.48-.082.157-.054.278-.105.363-.151l.058.682a2.421 2.421 0 01-1.12.259m4.067 0a1.65 1.65 0 01-.607-.098.973.973 0 01-.616-.653 1.698 1.698 0 01-.066-.48c0-.13.012-.259.037-.386.025-.128.054-.257.087-.386l.529-1.997h.768l-.487 1.846c-.027.115-.064.25-.108.405-.044.155-.066.31-.066.465 0 .09.01.177.03.26a.513.513 0 00.318.367.838.838 0 00.33.056c.237 0 .445-.045.624-.139.179-.092.33-.2.45-.326.005-.08.014-.162.025-.247.011-.085.03-.178.058-.278L106.23 41h.77l-.653 2.469a6.07 6.07 0 00-.07.334 1.876 1.876 0 00.004.68c.022.114.06.24.115.374l-.677.09a2.343 2.343 0 01-.083-.187 1.343 1.343 0 01-.066-.225c-.06.05-.132.102-.215.157a1.679 1.679 0 01-.285.15 2.209 2.209 0 01-.355.113c-.13.03-.271.045-.426.045m4.414-.701c.252 0 .466-.052.644-.155a2.21 2.21 0 00.464-.36 4.296 4.296 0 01.099-.665l.54-2.218a1.082 1.082 0 00-.18-.022 4.297 4.297 0 00-.189-.005 2.154 2.154 0 00-1.635.719 2.338 2.338 0 00-.45.759 2.597 2.597 0 00-.158.9c0 .136.015.266.045.39.03.125.078.235.144.333a.722.722 0 00.266.235c.111.06.248.089.41.089m1.91-.328c0 .136.012.273.035.412.025.14.067.289.127.448l-.739.106a1.777 1.777 0 01-.153-.47 2.72 2.72 0 01-.532.355c-.222.119-.495.178-.82.178-.263 0-.492-.04-.684-.12a1.24 1.24 0 01-.478-.342 1.42 1.42 0 01-.279-.527 2.375 2.375 0 01-.09-.67c0-.396.068-.784.203-1.163.135-.378.336-.715.603-1.011a2.98 2.98 0 011.005-.714c.402-.18.87-.27 1.405-.27a2.348 2.348 0 01.406.035l.504-2.076L112 38l-1.27 5.19c-.03.137-.057.266-.082.39a2.068 2.068 0 00-.035.39" fill="#F89B22"/><g transform="translate(111 40)"><mask id="h" fill="#fff"><use xlink:href="#g"/></mask><path d="M2.725 3.757c.191-.33.365-.672.521-1.026A17.065 17.065 0 003.956.82c.081-.273.14-.491.174-.656h.734a16.229 16.229 0 01-.601 1.785c-.144.36-.305.728-.484 1.104a11.785 11.785 0 01-1.07 1.814 3.686 3.686 0 01-.517.594c-.184.168-.387.3-.608.395A1.856 1.856 0 01.836 6a1.3 1.3 0 01-.393-.058.854.854 0 01-.265-.124l.242-.626c.05.044.119.081.204.111a.86.86 0 00.287.046 1.2 1.2 0 00.745-.231c.204-.154.396-.358.578-.61a18.818 18.818 0 01-.458-2.102A17.793 17.793 0 011.561.163h.718a18.668 18.668 0 00.124 1.727c.039.316.084.634.137.952.053.32.114.624.185.915" fill="#F89B22" mask="url(#h)"/></g><path d="M119.52 44.274c.23 0 .427-.055.591-.166a1.97 1.97 0 00.427-.385 5.075 5.075 0 01.082-.672l.493-2.279a.46.46 0 00-.135-.028 1.766 1.766 0 00-1.014.193 2.055 2.055 0 00-.645.538 2.449 2.449 0 00-.411.781 3.029 3.029 0 00-.144.933c0 .128.01.26.033.39.022.132.061.249.119.35a.732.732 0 00.23.248c.096.065.22.097.373.097zm1.224.661a3.474 3.474 0 01-.083-.224 1.913 1.913 0 01-.065-.263 2.47 2.47 0 01-.485.368c-.203.123-.452.184-.748.184a1.38 1.38 0 01-.62-.129 1.126 1.126 0 01-.423-.358 1.591 1.591 0 01-.242-.543 2.852 2.852 0 01-.078-.69 4 4 0 01.185-1.203c.123-.392.308-.742.555-1.048.246-.306.555-.554.927-.744.373-.19.808-.285 1.306-.285.148 0 .32.018.518.055.197.037.367.098.509.184l-.632 2.886c-.028.141-.05.275-.07.404a2.728 2.728 0 00.004.832c.022.144.06.3.115.464l-.673.11zm3.025-.935H123l.992-3.767a6.725 6.725 0 011.612-.233c.247 0 .46.031.64.094.179.063.323.148.434.256a.99.99 0 01.244.392c.052.153.078.32.078.5 0 .117-.01.238-.033.366-.022.128-.05.258-.082.388l-.53 2.004h-.768l.488-1.853a19.1 19.1 0 00.111-.43 1.72 1.72 0 00.054-.414.718.718 0 00-.182-.501c-.121-.133-.347-.2-.678-.2-.137 0-.273.008-.405.023a2.079 2.079 0 00-.33.06L123.769 44z" fill="#F89B22"/><g transform="translate(127 40)"><mask id="j" fill="#fff"><use xlink:href="#i"/></mask><path d="M2.68 3.757c.203-.33.385-.672.55-1.026A16.582 16.582 0 003.978.82c.085-.273.146-.491.183-.656h.772A15.567 15.567 0 014.3 1.948c-.151.36-.32.728-.51 1.104a11.491 11.491 0 01-1.125 1.814c-.17.228-.351.426-.545.594-.193.168-.407.3-.64.395A2.044 2.044 0 01.693 6c-.149 0-.287-.02-.414-.058A.92.92 0 010 5.818l.255-.626a.67.67 0 00.215.111c.09.03.19.046.302.046.308 0 .569-.077.784-.231.214-.154.417-.358.608-.61a18.01 18.01 0 01-.481-2.102A16.93 16.93 0 011.456.163h.756a17.472 17.472 0 00.131 1.727c.04.316.088.634.143.952.056.32.121.624.195.915" fill="#F89B22" mask="url(#j)"/></g><path d="M136.11 44.17a6.33 6.33 0 00.526-.628 14.742 14.742 0 001.098-1.723c.162-.3.287-.573.374-.819H139a8.327 8.327 0 01-.526 1.092 13.735 13.735 0 01-1.459 2.085c-.265.313-.52.587-.764.823h-.78c-.068-.446-.13-.895-.182-1.346-.053-.451-.086-.91-.099-1.377a13.043 13.043 0 01-.92 1.442c-.174.239-.35.468-.525.689-.175.22-.344.418-.506.592h-.78a14.886 14.886 0 01-.318-1.804A21.09 21.09 0 01132 41h.873a46.217 46.217 0 00.074 1.635c.02.284.041.56.067.827.024.266.056.502.094.707.193-.22.385-.464.577-.73a15.249 15.249 0 001.022-1.647c.147-.277.273-.54.38-.792h.789a21.127 21.127 0 00.06 1.554c.022.277.047.552.076.827.028.274.06.537.098.788M139 45l1.51-6.856.8-.144-.529 2.373a2.69 2.69 0 01.4-.118c.14-.03.282-.045.425-.045.247 0 .46.038.64.113.178.075.322.177.432.307.11.13.191.285.244.469.052.183.078.383.078.6 0 .264-.038.565-.115.902L142.357 45h-.767l.486-2.219c.039-.168.076-.34.112-.514a2.49 2.49 0 00.053-.496c0-.241-.06-.44-.181-.6-.121-.16-.347-.24-.677-.24a2.17 2.17 0 00-.408.041c-.14.027-.257.065-.35.113L139.767 45H139zm4.908-2.624c.338-.012.647-.035.926-.07.28-.033.521-.09.725-.173.204-.083.363-.194.476-.335.114-.14.17-.324.17-.55a.554.554 0 00-.03-.175.464.464 0 00-.105-.17.553.553 0 00-.205-.128.903.903 0 00-.323-.05c-.204 0-.395.046-.572.138a1.734 1.734 0 00-.477.362c-.14.15-.259.324-.357.523a2.9 2.9 0 00-.228.628m.83 2.624a2.01 2.01 0 01-.769-.134 1.51 1.51 0 01-.54-.366 1.485 1.485 0 01-.324-.546 2.064 2.064 0 01-.105-.66c0-.429.061-.841.183-1.24a3.49 3.49 0 01.524-1.054c.228-.306.504-.549.83-.73a2.25 2.25 0 011.11-.27c.238 0 .443.032.615.097a1.049 1.049 0 01.66.642c.052.143.078.291.078.444 0 .288-.05.53-.149.73-.098.199-.23.365-.392.5a1.784 1.784 0 01-.573.312 4.8 4.8 0 01-.68.174 6.18 6.18 0 01-.717.087c-.241.016-.47.03-.685.041a.883.883 0 00-.01.12v.073c0 .14.017.274.049.4a.757.757 0 00.179.33.892.892 0 00.362.224c.155.055.357.082.607.082.11 0 .226-.01.345-.031a3.485 3.485 0 00.629-.184.635.635 0 00.18-.096l.069.724a2.8 2.8 0 01-.563.216 3.25 3.25 0 01-.913.115m5.502-5a2.92 2.92 0 01.425.034c.073.012.14.025.2.038a.58.58 0 01.135.04l-.203.61a1.57 1.57 0 00-.346-.09 2.47 2.47 0 00-.376-.03 2.093 2.093 0 00-.579.083L148.7 44h-.7l.902-3.767c.2-.07.416-.126.647-.169.23-.043.46-.064.692-.064m1.667 2.376c.338-.012.647-.035.926-.07.28-.033.521-.09.725-.173a1.15 1.15 0 00.476-.335c.114-.14.17-.324.17-.55a.554.554 0 00-.03-.175.464.464 0 00-.105-.17.551.551 0 00-.205-.128.902.902 0 00-.323-.05 1.23 1.23 0 00-.572.138 1.729 1.729 0 00-.476.362c-.14.15-.26.324-.358.523-.1.198-.175.408-.228.628m.83 2.624c-.297 0-.553-.045-.768-.134a1.511 1.511 0 01-.542-.366 1.48 1.48 0 01-.323-.546 2.056 2.056 0 01-.105-.66c0-.429.061-.841.183-1.24a3.47 3.47 0 01.525-1.054c.227-.306.504-.549.83-.73a2.25 2.25 0 011.108-.27c.24 0 .444.032.616.097a1.049 1.049 0 01.66.642c.052.143.078.291.078.444 0 .288-.05.53-.148.73-.1.199-.23.365-.393.5a1.786 1.786 0 01-.572.312 4.804 4.804 0 01-.682.174 6.18 6.18 0 01-.716.087c-.241.016-.47.03-.685.041a.883.883 0 00-.01.12v.073c0 .14.017.274.049.4a.763.763 0 00.179.33.892.892 0 00.362.224c.155.055.357.082.607.082.11 0 .226-.01.345-.031a3.485 3.485 0 00.629-.184.635.635 0 00.18-.096l.07.724c-.117.068-.305.14-.564.216a3.248 3.248 0 01-.913.115M158 39l-.34 1.606a27.554 27.554 0 01-.494 1.891 9.53 9.53 0 01-.185.557h-.43c.04-.385.087-.772.14-1.16.053-.388.13-.82.23-1.296l.34-1.598H158zm-1.547 6a.436.436 0 01-.332-.128c-.08-.085-.121-.21-.121-.374 0-.203.054-.36.163-.471a.507.507 0 01.373-.166.44.44 0 01.336.132c.083.088.125.216.125.387a.65.65 0 01-.174.454.518.518 0 01-.37.166z" fill="#F89B22"/></g></svg>