<svg width="200" height="57" xmlns="http://www.w3.org/2000/svg"><g fill="#FFF" fill-rule="evenodd"><path d="M21 55.894c2.5.715 5.137 1.106 7.868 1.106C41.675 57 52.496 48.57 56 37c-4.016 9.867-13.762 16.83-25.15 16.83-.85 0-1.69-.045-2.52-.12a56.127 56.127 0 01-3.824 1.285c-1.135.335-2.31.64-3.506.899m-1.654-4.537A27.011 27.011 0 014.17 27.047C4.17 15.707 11.133 6 21 2 9.43 5.49 1 16.266 1 29.021c0 9.477 4.658 17.855 11.795 22.97 2.168.06 4.397-.197 6.551-.634M30 46.98a47.083 47.083 0 01-.8-1.98c-.866.05-1.74.079-2.622.079-.53 0-1.055-.012-1.578-.03.15.61.34 1.212.565 1.805a37.278 37.278 0 004.435.127m.54.019a63.77 63.77 0 001.82-.104l.515-.573c.391-.435.768-.876 1.125-1.323-1.314.15-2.648.265-4 .348.17.553.35 1.104.54 1.652"/><path d="M10 42a33.31 33.31 0 005 2c-.303-.286-.59-.58-.868-.88A43.918 43.918 0 0110 42m32.316-27.21c-.098.164-.205.31-.316.447.19.91.362 1.831.514 2.763.265-.106.529-.213.79-.328.277-.618.47-1.332.61-1.999.033-.153.057-.313.086-.469A45.713 45.713 0 0043.05 12c-.028 1.011-.257 1.99-.734 2.79M42 47c-.643.408-1.293.804-1.947 1.192A47.017 47.017 0 0138 52a37.433 37.433 0 004-5M34 0a51.65 51.65 0 013.378 4.919L39 5a39.936 39.936 0 00-5-5m-6 10.182L26.508 10c-.185.99-.355 1.986-.508 2.988.574.281 1.14.633 1.687 1.012.09-1.274.195-2.546.313-3.818m2 36.865c.116.318.232.637.355.953.215-.1.431-.198.645-.302-.049-.232-.095-.465-.142-.698-.285.02-.57.036-.858.047M27.93 29a36.982 36.982 0 00-.93 1.959c.332.02.666.033 1 .041a153.48 153.48 0 01-.07-2m.699 4.157A44.5 44.5 0 0126 33a56.418 56.418 0 002.48 10c.51-.032 1.016-.073 1.52-.122a98.678 98.678 0 01-1.371-9.721M31 1a50.828 50.828 0 00-4 9l2.2-.924A92.88 92.88 0 0131 1m-4.3 21a8.178 8.178 0 01-.684 1.566A102.57 102.57 0 0026.002 26l.185-.154c.604-.502 1.205-1.013 1.813-1.509h-1.399l.1-2.337zm1.3-4.243A69.723 69.723 0 0026.268 15c-.1.851-.189 1.706-.268 2.563L27.946 19c.016-.414.036-.829.054-1.243m1 27.345c.265.637.548 1.27.846 1.898A43.21 43.21 0 0031 46.952 68.025 68.025 0 0130.521 45c-.504.041-1.011.075-1.521.102"/><path d="M29 45.102c.265.637.548 1.27.846 1.898A43.21 43.21 0 0031 46.952 68.025 68.025 0 0130.521 45c-.504.041-1.011.075-1.521.102M25.765 32c-.266.308-.522.62-.765.935.333.023.665.046 1 .065-.08-.334-.164-.666-.235-1M50 29a42.656 42.656 0 004.746-3.412c.088-.195.171-.392.254-.588a59.017 59.017 0 01-4.596 2.247A31.966 31.966 0 0150 29m-21 2.42c.055 1.186.123 2.368.203 3.547.407.016.815.033 1.226.033 1.894 0 3.754-.18 5.571-.523 0-1.178-.08-2.335-.231-3.477-1.94.282-3.912.435-5.913.435-.286 0-.57-.01-.856-.015M5 26a41.528 41.528 0 004.984 4c-.005-.485 0-.97.016-1.454A52.79 52.79 0 015 26m23 7a64.466 64.466 0 01-.162-1.972A47.622 47.622 0 0126.772 31c-.272.39-.531.791-.772 1.203.033.23.072.46.11.691.624.053 1.254.088 1.89.106"/><path d="M28 33a64.466 64.466 0 01-.162-1.972A47.622 47.622 0 0126.772 31c-.272.39-.531.791-.772 1.203.033.23.072.46.11.691.624.053 1.254.088 1.89.106m23-17.647c.03.216.06.431.085.647A28.66 28.66 0 0053 14c-.653.476-1.32.927-2 1.353m-19 6.62A42.645 42.645 0 0030.687 20L28 20.24l.099 1.66c.904.061 1.814.1 2.734.1.392 0 .779-.016 1.167-.027m6-2.283c1.028.265 2.21.442 3.214.184.29-.074.55-.184.786-.317a27.708 27.708 0 00-.16-.557 55.946 55.946 0 01-3.84.69m-21 .26L15.007 19l-.007.319c.639.244 1.292.472 1.961.681.014-.016.025-.034.039-.05"/><path d="M52.501 14.499a.002.002 0 00-.002.002l.002-.002zm-40.595 1.814A27.816 27.816 0 0110 15a26.129 26.129 0 001.821 2c.06-.196.117-.394.179-.589l-.094-.098zM44.146 18c.34-.266.62-.612.854-1a34 34 0 01-1 .308c.05.23.098.461.146.692"/><path d="M44.146 18c.34-.266.62-.612.854-1a34 34 0 01-1 .308c.05.23.098.461.146.692M32 22.69C25.268 24.56 13.145 38.56 14.105 16c-6.446 11.99-2.607 25.81 9.211 33a48.421 48.421 0 001.223-.39l.326-.113C21.243 40.671 21.555 33.244 32 22.69"/><path d="M18.51 18.66c-.534.625-.929 1.354-1.115 2.133-.556 2.323.958 4.207 3.382 4.207 2.424 0 4.839-1.884 5.394-4.207.089-.371.125-.73.113-1.073l1.469-.127-.22 3.588h.928l-.223-3.63L30 19.396 23.257 16 15 16.396l3.51 2.263z"/><path d="M24.595 55.271c16.748-4.932 33.192-18.909 36.73-31.217C63.91 15.059 58.886 9.447 49.459 9c.192.434.377.871.551 1.312 6.05 1.604 8.944 6.329 6.964 13.22-3.243 11.283-18.315 24.093-33.665 28.613C12.59 55.302 4.577 53.577 1.817 48.41c-1.192-2.232-1.41-5.104-.431-8.507.024-.084.05-.168.076-.251a22.66 22.66 0 00-.787 2.262c-.95 3.303-.872 6.15.072 8.452 2.574 6.28 11.593 8.514 23.848 4.905"/><path d="M33.314 46c.47-.253.936-.51 1.398-.774 4.225-2.41 8.292-5.386 11.827-8.781 5.126-8.251 5.798-18.534 2.202-27.792a15.78 15.78 0 00-.13-.298l-.667-1.503.036.001A33.94 33.94 0 0047.07 5C48.2 31.926 33.927 15.216 26 12.985 39.263 26.571 38.65 35.815 33.314 46"/><path d="M31.642 12.979h.989l-.235-3.987 1.568.142c-.013.38.025.78.12 1.191.592 2.582 3.168 4.675 5.753 4.675 2.586 0 4.2-2.093 3.608-4.675a5.822 5.822 0 00-1.19-2.37L46 5.44 37.193 5 30 8.775l1.88.17-.238 4.034zM60 45l9.748-40H95l-1.468 6.06h-17.93l-2.426 10.044H89.07l-1.47 5.945H71.8l-2.934 11.89H88.13L86.661 45z"/><path d="M109.886 20.263c-.747-.155-1.652-.233-2.713-.233-1.81 0-3.46.379-4.955 1.136a12.106 12.106 0 00-3.833 3.028 13.686 13.686 0 00-2.446 4.338 15.243 15.243 0 00-.855 5.066c0 .893.088 1.727.265 2.503.177.777.463 1.456.856 2.038a4.317 4.317 0 001.564 1.398c.65.349 1.446.524 2.39.524 1.26 0 2.37-.252 3.336-.757.964-.504 1.878-1.203 2.745-2.096.038-.816.127-1.669.264-2.562.137-.893.304-1.766.5-2.62l2.882-11.763zM98.506 46c-1.849 0-3.443-.301-4.78-.902-1.338-.602-2.43-1.427-3.276-2.475-.847-1.048-1.466-2.29-1.86-3.727-.393-1.435-.59-2.988-.59-4.658 0-2.6.463-5.114 1.39-7.54.925-2.426 2.245-4.562 3.958-6.406 1.714-1.843 3.812-3.319 6.295-4.425 2.481-1.106 5.298-1.66 8.45-1.66.394 0 .868.02 1.419.059.551.039 1.162.136 1.832.291l3.218-13.392L122 0l-8.087 33.015a24.907 24.907 0 00-.443 2.708 24.195 24.195 0 00-.147 2.59c0 1.05.098 2.097.295 3.145.197 1.048.511 2.135.944 3.26l-6.375.933c-.433-.816-.806-1.805-1.12-2.97-.985.854-2.185 1.621-3.602 2.3-1.417.679-3.07 1.019-4.958 1.019zM148 15l-4.43 17.987c-.201.888-.35 1.774-.45 2.66-.1.888-.15 1.774-.15 2.661 0 1.119.09 2.218.27 3.296.18 1.08.488 2.14.928 3.181l-6.467.926a8.531 8.531 0 01-.629-1.417c-.18-.52-.35-1.05-.509-1.59-.998.771-2.236 1.513-3.713 2.226-1.477.713-3.194 1.07-5.15 1.07-1.756 0-3.253-.251-4.49-.752-1.238-.5-2.246-1.185-3.025-2.053a7.722 7.722 0 01-1.676-3.065A13.383 13.383 0 01118 36.4c0-1.697.24-3.529.719-5.495L122.671 15h7.245l-3.91 15.731c-.507 2.006-.76 3.644-.76 4.916 0 .617.06 1.196.18 1.735.119.54.33 1.013.63 1.417.3.405.72.723 1.261.955.54.231 1.211.347 2.013.347 1.32 0 2.502-.26 3.544-.78a10.983 10.983 0 002.882-2.112c.12-1.658.4-3.355.841-5.09L140.754 15H148z"/><path d="M154.99 14l4.928 10.463c1.5-1.823 2.9-3.607 4.202-5.35A86.215 86.215 0 00167.672 14H175a126.41 126.41 0 01-5.503 7.48 147.252 147.252 0 01-6.568 7.715 175.427 175.427 0 013.912 7.992A89.843 89.843 0 01169.983 45h-7.168a72.345 72.345 0 00-2.166-5.566 111.386 111.386 0 00-2.464-5.27L148.791 45H141l13.856-16.104L147.493 14h7.497z"/><path d="M192.12 20.084c-.725-.155-1.545-.234-2.461-.234-1.718 0-3.303.38-4.753 1.141-1.45.76-2.7 1.775-3.75 3.042-1.05 1.268-1.86 2.72-2.433 4.358a15.476 15.476 0 00-.859 5.148c0 .898.076 1.736.229 2.516.152.78.41 1.462.772 2.047a4.07 4.07 0 001.459 1.404c.61.351 1.391.527 2.345.527 1.22 0 2.296-.263 3.231-.79.934-.526 1.802-1.238 2.603-2.135.038-1.014.123-1.969.257-2.867.133-.896.315-1.793.543-2.69l2.818-11.467zm3.762 13.221c-.115.43-.23 1.132-.344 2.106a23.705 23.705 0 00-.171 2.75c0 1.132.095 2.233.286 3.305.19 1.073.495 2.155.915 3.247l-6.178.936c-.457-.936-.82-1.93-1.087-2.984-.953.859-2.126 1.63-3.517 2.31-1.392.683-2.965 1.025-4.719 1.025-1.793 0-3.327-.303-4.604-.907-1.278-.604-2.317-1.442-3.118-2.515-.8-1.073-1.392-2.33-1.773-3.774-.382-1.442-.572-3.002-.572-4.68 0-2.846.495-5.499 1.487-7.956.992-2.457 2.374-4.582 4.147-6.376 1.774-1.793 3.88-3.208 6.32-4.242 2.44-1.032 5.11-1.55 8.009-1.55 1.487 0 2.983.127 4.49.38 1.506.254 3.021.732 4.547 1.434l-4.118 17.491zM60.231 55.188c.22 0 .44-.02.657-.063a1.91 1.91 0 00.582-.208c.17-.096.31-.224.416-.382.107-.158.16-.352.16-.585a.841.841 0 00-.1-.42 1.11 1.11 0 00-.279-.32 2.393 2.393 0 00-.416-.26 23.13 23.13 0 00-.528-.257 9.273 9.273 0 01-.497-.251 1.911 1.911 0 01-.448-.333 1.582 1.582 0 01-.32-.47 1.555 1.555 0 01-.123-.647c0-.29.062-.558.186-.802a1.77 1.77 0 01.55-.633c.242-.178.54-.315.892-.412A4.61 4.61 0 0162.174 49a4.113 4.113 0 011.138.155c.16.045.3.092.421.14.121.049.21.092.267.13l-.48.735c-.121-.09-.315-.172-.582-.246a3.543 3.543 0 00-.945-.111c-.228 0-.44.02-.636.062a1.56 1.56 0 00-.506.199c-.143.09-.257.205-.342.343a.933.933 0 00-.128.498c0 .168.028.308.085.42a.974.974 0 00.235.3c.1.087.222.166.369.237.145.071.303.145.475.222.213.097.414.195.603.295.188.1.354.218.496.353.142.136.255.293.336.474.082.18.123.4.123.657 0 .355-.076.666-.23.933a1.96 1.96 0 01-.63.667 2.99 2.99 0 01-.95.402c-.366.09-.762.135-1.19.135-.285 0-.543-.018-.774-.053a4.6 4.6 0 01-.608-.13 3.396 3.396 0 01-.443-.16 1.746 1.746 0 01-.278-.15l.48-.764c.136.084.349.179.64.285.293.107.663.16 1.111.16M65.63 56c-.562 0-.975-.11-1.236-.332-.263-.222-.394-.544-.394-.967 0-.276.052-.628.157-1.057l1.202-4.483L66.45 49l-.438 1.621H68l-.213.786h-1.989l-.618 2.317a3.07 3.07 0 00-.135.826c0 .221.067.381.202.478.135.098.36.146.674.146.217 0 .43-.032.64-.096.21-.063.372-.122.484-.176l.079.796c-.113.06-.304.126-.573.197-.27.07-.577.105-.922.105m5.983 0a2.06 2.06 0 01-.76-.122 1.338 1.338 0 01-.496-.328 1.213 1.213 0 01-.273-.488 2.11 2.11 0 01-.083-.6c0-.163.016-.324.047-.484.03-.159.067-.32.108-.482L70.816 51h.96l-.609 2.308a11.71 11.71 0 01-.134.506 2.12 2.12 0 00-.083.582c0 .112.013.22.037.323a.646.646 0 00.397.46c.11.047.248.07.414.07.296 0 .556-.057.78-.173a2.16 2.16 0 00.563-.408c.006-.1.017-.203.03-.31a2.53 2.53 0 01.073-.347L74.039 51H75l-.816 3.086a7.528 7.528 0 00-.088.418 2.314 2.314 0 00.15 1.318l-.847.112a2.811 2.811 0 01-.104-.234 1.678 1.678 0 01-.082-.282 3.375 3.375 0 01-.269.197 2.09 2.09 0 01-.356.188 2.74 2.74 0 01-.444.14 2.34 2.34 0 01-.532.057m5.431-.901c.303 0 .56-.067.773-.2.213-.133.398-.287.557-.462a5.501 5.501 0 01.12-.855l.648-2.852a1.208 1.208 0 00-.216-.028 4.828 4.828 0 00-.228-.006c-.41 0-.782.084-1.113.251a2.636 2.636 0 00-.849.672 3.044 3.044 0 00-.54.976 3.552 3.552 0 00-.19 1.158c0 .175.018.342.054.501.036.16.094.303.173.428.08.126.186.227.32.302a.976.976 0 00.491.115m2.292-.422c0 .175.014.351.043.53.029.179.08.371.152.576l-.887.137a2.415 2.415 0 01-.183-.605 3.227 3.227 0 01-.638.457c-.267.152-.595.228-.984.228-.318 0-.592-.052-.822-.154a1.497 1.497 0 01-.573-.44 1.867 1.867 0 01-.335-.678 3.229 3.229 0 01-.108-.861c0-.51.081-1.008.243-1.495.163-.486.404-.92.724-1.3a3.59 3.59 0 011.206-.918c.483-.232 1.045-.347 1.686-.347a2.64 2.64 0 01.487.045l.605-2.67L81 47l-1.524 6.673a17.51 17.51 0 00-.098.502 2.81 2.81 0 00-.043.502m3.926-.367c.245-.395.468-.805.668-1.23a19.178 19.178 0 00.91-2.293c.103-.327.177-.59.222-.787H86a18.492 18.492 0 01-.77 2.14c-.183.433-.39.874-.618 1.325-.23.452-.48.885-.75 1.3-.207.31-.414.602-.62.875a4.49 4.49 0 01-.663.712 2.81 2.81 0 01-.779.474 2.52 2.52 0 01-.958.174c-.18 0-.348-.024-.503-.07a1.13 1.13 0 01-.339-.148l.31-.751a.82.82 0 00.261.133c.11.036.232.055.368.055.374 0 .692-.093.953-.277a3.46 3.46 0 00.74-.732 21.466 21.466 0 01-.585-2.52 20.024 20.024 0 01-.276-2.69h.92a20.014 20.014 0 00.16 2.072c.047.379.105.76.173 1.141.068.383.147.749.237 1.098M89.63 56c-.563 0-.974-.11-1.236-.332-.263-.222-.394-.544-.394-.967 0-.276.052-.628.158-1.057l1.202-4.483L90.45 49l-.439 1.621H92l-.213.786h-1.99l-.617 2.317c-.09.315-.135.59-.135.826 0 .221.067.381.202.478.135.098.36.146.674.146.217 0 .431-.032.641-.096.21-.063.37-.122.483-.176l.079.796c-.113.06-.304.126-.573.197-.27.07-.577.105-.922.105M93 56l1.887-8.815 1-.185-.66 3.05c.158-.062.325-.112.5-.15a2.43 2.43 0 01.53-.058c.31 0 .576.048.8.145.223.096.403.228.54.394.139.167.24.367.305.603s.098.493.098.771c0 .34-.048.727-.144 1.16L97.196 56h-.959l.608-2.853c.048-.216.095-.437.14-.661.044-.224.067-.437.067-.638 0-.31-.076-.566-.227-.771-.151-.205-.433-.308-.845-.308-.166 0-.335.018-.51.052a1.62 1.62 0 00-.439.145L93.959 56H93zm13.987-6a4.173 4.173 0 01.567.042c.096.016.186.031.266.047a.82.82 0 01.18.052l-.27.762a2.231 2.231 0 00-.462-.112 3.458 3.458 0 00-.501-.038c-.14 0-.28.01-.416.029a2.128 2.128 0 00-.356.075L104.932 55H104l1.203-4.708a6.07 6.07 0 01.862-.212c.308-.054.615-.08.922-.08m-7.851 2.851c.422-.014.807-.042 1.157-.083.35-.04.651-.11.906-.208.255-.1.453-.234.595-.403.142-.168.213-.389.213-.66a.633.633 0 00-.039-.209.539.539 0 00-.13-.204.694.694 0 00-.257-.153 1.185 1.185 0 00-.404-.061c-.255 0-.493.055-.715.165-.222.11-.42.255-.595.434a2.64 2.64 0 00-.448.628c-.124.239-.218.49-.283.754M100.173 56c-.372 0-.692-.054-.961-.16a1.897 1.897 0 01-.677-.44 1.763 1.763 0 01-.404-.655 2.378 2.378 0 01-.131-.793c0-.514.077-1.009.23-1.486.152-.477.37-.899.655-1.266a3.167 3.167 0 011.037-.875c.407-.217.87-.325 1.386-.325.298 0 .555.038.77.116.214.077.389.181.524.314.134.131.234.284.3.456.065.173.098.35.098.534 0 .345-.062.637-.185.875a1.823 1.823 0 01-.492.6 2.26 2.26 0 01-.714.375 6.227 6.227 0 01-.852.209 8.023 8.023 0 01-.895.104c-.303.019-.588.035-.857.05a1.163 1.163 0 00-.012.143v.088c0 .169.02.329.06.479.04.15.115.283.225.396.109.114.26.204.452.27.193.066.446.099.76.099.137 0 .281-.013.43-.039a3.6 3.6 0 00.426-.099c.135-.04.255-.08.36-.12a.806.806 0 00.224-.116l.087.87c-.145.08-.38.167-.704.258a4.219 4.219 0 01-1.14.138m8.962-3.149c.422-.014.808-.042 1.158-.083.35-.04.651-.11.906-.208.254-.1.453-.234.594-.403.143-.168.214-.389.214-.66a.643.643 0 00-.039-.209.543.543 0 00-.13-.204.693.693 0 00-.257-.153 1.17 1.17 0 00-.404-.061c-.255 0-.493.055-.715.165-.222.11-.42.255-.595.434a2.63 2.63 0 00-.448.628c-.124.239-.218.49-.284.754M110.173 56c-.372 0-.692-.054-.961-.16a1.894 1.894 0 01-.677-.44 1.763 1.763 0 01-.404-.655 2.368 2.368 0 01-.131-.793c0-.514.077-1.009.23-1.486.152-.477.37-.899.654-1.266.284-.367.63-.659 1.038-.875.407-.217.87-.325 1.386-.325.298 0 .555.038.77.116.214.077.389.181.524.314.134.131.234.284.3.456.065.173.098.35.098.534 0 .345-.062.637-.185.875a1.828 1.828 0 01-.492.6 2.257 2.257 0 01-.715.375 6.2 6.2 0 01-.852.209 8.013 8.013 0 01-.895.104c-.302.019-.587.035-.857.05-.007.059-.01.106-.01.143v.088c0 .169.02.329.06.479.04.15.114.283.224.396.108.114.26.204.452.27.193.066.446.099.759.099.138 0 .282-.013.431-.039.149-.025.291-.058.426-.099.135-.04.255-.08.36-.12a.817.817 0 00.224-.116l.087.87c-.145.08-.38.167-.704.258a4.22 4.22 0 01-1.14.138M115 55a2.445 2.445 0 01-.174.535 3.455 3.455 0 01-.303.531 4.25 4.25 0 01-.405.498 4.865 4.865 0 01-.472.436l-.646-.19a3.22 3.22 0 00.374-.433 3.63 3.63 0 00.293-.476c.082-.161.15-.318.205-.472.054-.154.092-.297.112-.429H115zm4.918.143c.16 0 .321-.015.485-.044.164-.03.308-.077.434-.143a.847.847 0 00.308-.27.716.716 0 00.12-.422c0-.11-.02-.207-.057-.292a.703.703 0 00-.183-.236 1.804 1.804 0 00-.314-.214 11.87 11.87 0 00-.451-.236 6.866 6.866 0 01-.479-.242 1.73 1.73 0 01-.382-.286 1.17 1.17 0 01-.258-.39 1.445 1.445 0 01-.09-.544c0-.55.205-.99.616-1.324.41-.333 1.008-.5 1.792-.5.366 0 .687.035.965.104.277.07.47.134.576.193l-.4.835a2.59 2.59 0 00-.513-.187 2.9 2.9 0 00-.788-.099c-.145 0-.289.015-.433.044a1.26 1.26 0 00-.395.149.753.753 0 00-.394.687c0 .197.08.36.24.488.16.128.4.262.72.401.197.088.375.178.53.27.156.091.29.194.4.307.11.114.194.248.251.4.057.155.086.338.086.551 0 .308-.061.579-.183.813a1.623 1.623 0 01-.508.582 2.332 2.332 0 01-.77.347c-.297.076-.62.115-.97.115a4.514 4.514 0 01-1.251-.165 2.59 2.59 0 01-.388-.137 4.258 4.258 0 01-.234-.115l.41-.836a3.282 3.282 0 001.004.352c.161.03.329.044.504.044m4.711.857c-.562 0-.974-.11-1.236-.332-.262-.222-.393-.544-.393-.967 0-.276.052-.628.158-1.057l1.201-4.483 1.09-.161-.438 1.621H127l-.213.786h-1.99l-.617 2.317c-.09.315-.135.59-.135.826 0 .221.067.381.202.478.135.098.36.146.674.146.217 0 .431-.032.64-.096.21-.063.372-.122.484-.176l.078.796c-.112.06-.303.126-.573.197-.27.07-.576.105-.921.105m4.982 0c-.302 0-.556-.041-.759-.122a1.217 1.217 0 01-.77-.816 2.122 2.122 0 01-.082-.6c0-.163.015-.324.047-.484.03-.159.067-.32.108-.482l.66-2.496h.961l-.609 2.308a11.71 11.71 0 01-.134.506 2.107 2.107 0 00-.083.582c0 .112.012.22.037.323a.641.641 0 00.397.46c.11.047.248.07.413.07.296 0 .557-.057.78-.173a2.16 2.16 0 00.564-.408c.006-.1.016-.203.03-.31a2.66 2.66 0 01.072-.347L132.04 51h.96l-.816 3.086a7.529 7.529 0 00-.088.418 2.346 2.346 0 00.005.849c.027.144.076.3.144.469l-.847.112a2.929 2.929 0 01-.103-.234 1.678 1.678 0 01-.082-.282 3.198 3.198 0 01-.27.197 2.099 2.099 0 01-.355.188 2.761 2.761 0 01-.444.14 2.34 2.34 0 01-.533.057m5.433-.901c.302 0 .56-.067.772-.2a2.65 2.65 0 00.557-.462 5.906 5.906 0 01.119-.855l.649-2.852a1.217 1.217 0 00-.217-.028 4.813 4.813 0 00-.227-.006c-.41 0-.782.084-1.113.251a2.642 2.642 0 00-.849.672 3.057 3.057 0 00-.54.976c-.127.369-.19.755-.19 1.158 0 .175.019.342.055.501.036.16.093.303.172.428a.889.889 0 00.32.302.978.978 0 00.492.115m2.291-.422c0 .175.015.351.043.53.03.179.08.371.152.576l-.886.137a2.4 2.4 0 01-.184-.605 3.26 3.26 0 01-.638.457c-.267.152-.595.228-.984.228-.317 0-.591-.052-.822-.154a1.495 1.495 0 01-.573-.44 1.873 1.873 0 01-.335-.678 3.259 3.259 0 01-.108-.861c0-.51.082-1.008.244-1.495a3.91 3.91 0 01.724-1.3c.32-.38.723-.686 1.205-.918.483-.232 1.045-.347 1.687-.347a2.63 2.63 0 01.486.045l.605-2.67L139 47l-1.525 6.673c-.036.175-.068.342-.097.502-.028.16-.043.327-.043.502m3.925-.367c.246-.395.469-.805.669-1.23a19.178 19.178 0 00.91-2.293c.103-.327.177-.59.222-.787H144a18.677 18.677 0 01-.77 2.14c-.184.433-.39.874-.619 1.325a13.694 13.694 0 01-1.369 2.175 4.502 4.502 0 01-.663.712 2.81 2.81 0 01-.779.474 2.517 2.517 0 01-.958.174c-.18 0-.348-.024-.503-.07a1.127 1.127 0 01-.339-.148l.31-.751a.817.817 0 00.261.133c.11.036.232.055.368.055.374 0 .692-.093.953-.277.261-.185.508-.429.74-.732a21.338 21.338 0 01-.585-2.52 20.023 20.023 0 01-.276-2.69h.92a19.437 19.437 0 00.159 2.072c.049.379.106.76.174 1.141.068.383.147.749.237 1.098m7.639.817c.287 0 .534-.066.739-.198.205-.133.383-.287.534-.463a5.853 5.853 0 01.103-.805l.615-2.736a.595.595 0 00-.17-.033 2.283 2.283 0 00-1.268.232 2.548 2.548 0 00-.805.645 2.9 2.9 0 00-.514.937 3.49 3.49 0 00-.179 1.12c0 .154.014.31.041.469.027.158.077.297.149.419.072.121.168.22.287.298.12.077.276.115.467.115zm1.53.794a4.063 4.063 0 01-.103-.27 2.221 2.221 0 01-.082-.314 3.08 3.08 0 01-.606.441c-.254.148-.565.221-.935.221-.3 0-.56-.052-.774-.155a1.395 1.395 0 01-.53-.43 1.874 1.874 0 01-.303-.65 3.291 3.291 0 01-.097-.828c0-.492.077-.974.231-1.445.154-.47.385-.89.694-1.257a3.499 3.499 0 011.16-.893c.465-.228 1.01-.342 1.632-.342.185 0 .4.022.646.066.247.044.459.118.637.22l-.79 3.464c-.035.17-.064.33-.088.485a3.145 3.145 0 00.006.998c.027.173.075.36.143.557l-.842.132zm3.531-.922H153l1.24-4.708c.317-.088.66-.159 1.028-.212a6.86 6.86 0 01.987-.08c.309 0 .576.039.8.117.224.079.404.186.542.32.138.136.24.299.305.49.066.192.098.4.098.627 0 .144-.014.296-.041.456-.028.16-.062.322-.103.485L157.195 55h-.961l.61-2.317c.047-.175.094-.354.139-.536a2.16 2.16 0 00.067-.518.897.897 0 00-.227-.627c-.152-.165-.434-.249-.848-.249-.172 0-.34.01-.506.029a2.598 2.598 0 00-.413.075L153.961 55zm7.299-.69c.246-.395.469-.805.669-1.23a19.178 19.178 0 00.91-2.293c.103-.327.177-.59.222-.787H164a18.505 18.505 0 01-.77 2.14c-.184.433-.39.874-.62 1.325a13.73 13.73 0 01-1.368 2.175 4.502 4.502 0 01-.663.712 2.81 2.81 0 01-.779.474 2.518 2.518 0 01-.958.174c-.18 0-.348-.024-.503-.07a1.127 1.127 0 01-.339-.148l.31-.751a.818.818 0 00.261.133c.11.036.232.055.368.055.374 0 .692-.093.953-.277.261-.185.508-.429.74-.732a21.338 21.338 0 01-.585-2.52 20.023 20.023 0 01-.276-2.69h.92a19.437 19.437 0 00.159 2.072c.049.379.106.76.174 1.141.068.383.147.749.237 1.098m8.023.651c.201-.199.426-.46.676-.784a18.32 18.32 0 001.411-2.154c.21-.375.37-.716.483-1.024H173c-.177.442-.402.898-.676 1.366a17.237 17.237 0 01-1.876 2.606c-.341.39-.67.733-.983 1.028h-1.001a45.835 45.835 0 01-.236-1.683 18.823 18.823 0 01-.126-1.72 16.29 16.29 0 01-1.182 1.803c-.226.297-.45.584-.676.86a12.99 12.99 0 01-.652.74h-1a18.14 18.14 0 01-.41-2.255A25.641 25.641 0 01164 51h1.122a56.174 56.174 0 00.096 2.043c.024.356.052.7.085 1.034.032.334.072.628.121.885.25-.276.496-.58.742-.914a18.195 18.195 0 001.314-2.058c.19-.346.352-.676.49-.99h1.013a22.984 22.984 0 00.078 1.943c.028.346.06.69.097 1.033.036.343.078.672.126.986M173 56l1.886-8.815 1-.185-.66 3.05c.159-.062.326-.112.5-.15.176-.04.353-.058.532-.058.309 0 .576.048.799.145.223.096.403.228.54.394.138.167.24.367.305.603s.098.493.098.771c0 .34-.048.727-.144 1.16l-.66 3.085h-.959l.608-2.853c.048-.216.095-.437.14-.661a3.29 3.29 0 00.067-.638c0-.31-.076-.566-.227-.771-.151-.205-.433-.308-.846-.308-.165 0-.334.018-.51.052a1.627 1.627 0 00-.438.145L173.959 56H173zm6.136-3.149c.421-.014.807-.042 1.156-.083.35-.04.652-.11.907-.208.254-.1.453-.234.594-.403.143-.168.213-.389.213-.66a.64.64 0 00-.037-.209.553.553 0 00-.132-.204.696.696 0 00-.256-.153 1.185 1.185 0 00-.404-.061c-.255 0-.493.055-.715.165-.222.11-.42.255-.595.434a2.62 2.62 0 00-.448.628c-.123.239-.218.49-.283.754M180.173 56a2.62 2.62 0 01-.961-.16 1.893 1.893 0 01-.677-.44 1.769 1.769 0 01-.404-.655 2.386 2.386 0 01-.131-.793c0-.514.076-1.009.23-1.486.152-.477.37-.899.654-1.266a3.19 3.19 0 011.037-.875c.408-.217.87-.325 1.387-.325.299 0 .555.038.77.116.214.077.389.181.524.314.134.131.234.284.3.456.065.173.098.35.098.534 0 .345-.062.637-.186.875a1.817 1.817 0 01-.49.6 2.26 2.26 0 01-.716.375 6.204 6.204 0 01-.851.209 8.034 8.034 0 01-.895.104c-.302.019-.588.035-.858.05a1.163 1.163 0 00-.01.143v.088c0 .169.02.329.06.479.04.15.114.283.223.396.11.114.26.204.453.27.193.066.446.099.76.099.137 0 .281-.013.43-.039.15-.025.292-.058.426-.099.135-.04.255-.08.36-.12a.804.804 0 00.224-.116l.087.87c-.145.08-.38.167-.704.258a4.221 4.221 0 01-1.14.138m6.814-6a4.15 4.15 0 01.567.042c.097.016.186.031.266.047a.82.82 0 01.18.052l-.27.762a2.226 2.226 0 00-.462-.112 3.448 3.448 0 00-.5-.038c-.141 0-.28.01-.417.029a2.13 2.13 0 00-.356.075L184.933 55H184l1.203-4.708c.267-.088.555-.159.862-.212.307-.054.615-.08.922-.08m2.149 2.851c.422-.014.807-.042 1.157-.083.35-.04.65-.11.906-.208.254-.1.453-.234.595-.403.142-.168.212-.389.212-.66a.64.64 0 00-.037-.209.553.553 0 00-.132-.204.693.693 0 00-.256-.153 1.17 1.17 0 00-.404-.061c-.255 0-.493.055-.715.165-.222.11-.42.255-.595.434-.175.18-.324.39-.448.628a3.41 3.41 0 00-.283.754M190.173 56a2.61 2.61 0 01-.96-.16 1.894 1.894 0 01-.678-.44 1.763 1.763 0 01-.404-.655 2.377 2.377 0 01-.131-.793c0-.514.076-1.009.23-1.486.152-.477.37-.899.654-1.266a3.19 3.19 0 011.038-.875c.407-.217.87-.325 1.386-.325.299 0 .555.038.77.116.214.077.389.181.524.314.134.131.234.284.3.456.065.173.098.35.098.534 0 .345-.062.637-.185.875a1.818 1.818 0 01-.492.6 2.262 2.262 0 01-.715.375 6.21 6.21 0 01-.851.209 8.034 8.034 0 01-.895.104c-.302.019-.588.035-.858.05a1.163 1.163 0 00-.01.143v.088c0 .169.02.329.06.479.04.15.115.283.223.396.11.114.26.204.453.27.193.066.446.099.76.099.137 0 .281-.013.43-.039.15-.025.292-.058.426-.099.135-.04.255-.08.36-.12a.804.804 0 00.224-.116l.088.87c-.146.08-.38.167-.705.258a4.22 4.22 0 01-1.14.138M196 49l-.34 1.874a36.73 36.73 0 01-.494 2.206c-.068.261-.13.478-.185.65h-.43c.04-.45.087-.901.14-1.354.053-.453.13-.956.23-1.512l.34-1.864H196zm-1.547 7a.405.405 0 01-.332-.149c-.08-.1-.121-.245-.121-.436 0-.238.054-.422.163-.55a.477.477 0 01.373-.194.41.41 0 01.336.154c.083.102.125.253.125.451a.869.869 0 01-.05.303.81.81 0 01-.124.227.527.527 0 01-.174.144.434.434 0 01-.196.05z"/></g></svg>