<svg width="29" height="19" xmlns="http://www.w3.org/2000/svg"><path d="M27.595 7.38A4.872 4.872 0 0025.1 4.847V1.49a.487.487 0 00-.483-.49H22.2a.487.487 0 00-.483.49v.087l-5.408 1.069-4.35.859-7.075 1.397-3.226-1.874a.48.48 0 00-.66.18.499.499 0 00-.065.247v12.272c0 .271.217.491.484.491.1 0 .199-.032.28-.092l3.215-2.331 2.788.55-.824-.193c-.178 0 2.966.631 9.432 1.893l5.409 1.069v.086c0 .271.216.49.483.49h2.417a.486.486 0 00.483-.49v-3.356c2.446-1.085 3.563-3.979 2.495-6.464zM4.317 13.02L1.9 14.773V4.301l2.417 1.402v7.317zm7.25 5.653h-2.9v-4.137l.071.015 2.829.594v3.528zm0-4.566l-2.61-.515-.677-.143h-.04l-2.957-.58V5.822l6.284-1.24v9.524zm4.35.861l-3.384-.668V4.39l3.384-.667v11.245zm5.8 1.146l-4.834-.955V3.532l4.834-.955v13.537zm2.416.595h-1.45V1.982h1.45v14.727zm2.388-5.412c-.34.6-.83 1.098-1.421 1.443V5.95c1.846 1.078 2.482 3.471 1.42 5.346z" fill="#FFF" stroke="#FFF" stroke-width=".5"/></svg>