<svg width="21" height="22" xmlns="http://www.w3.org/2000/svg"><path d="M17.571 12.848a.858.858 0 01-.857.859h-2.743a.858.858 0 010-1.719h2.743c.474 0 .857.385.857.86zm0 3.007c0 .475-.383.86-.857.86h-2.743a.858.858 0 010-1.719h2.743c.474 0 .857.385.857.86zM11.614 5.113H5.23V3.437h.9a.858.858 0 00.831-.65l.12-.481a.772.772 0 01.75-.587h1.097c.356 0 .664.241.75.587l.12.48a.857.857 0 00.832.651h.985v1.676zm8.529 10.828a.858.858 0 00.857-.859v-3.953a2.578 2.578 0 00-2.571-2.578h-1.672V5.156A3.437 3.437 0 0013.33 1.72h-2.04A2.484 2.484 0 008.927 0H7.83a2.484 2.484 0 00-2.364 1.719H3.429A3.437 3.437 0 000 5.156v13.406A3.437 3.437 0 003.429 22H7.2a.858.858 0 000-1.719H3.429a1.718 1.718 0 01-1.715-1.719V5.156c0-.947.77-1.719 1.715-1.719h.085v2.536c0 .474.384.859.857.859h8.1a.858.858 0 00.858-.86V3.438a1.72 1.72 0 011.714 1.72V8.55h-2.786a2.577 2.577 0 00-2.571 2.578v8.293A2.578 2.578 0 0012.258 22l6.17-.003A2.578 2.578 0 0021 19.419a.858.858 0 10-1.714 0 .86.86 0 01-.858.859l-6.17.003a.86.86 0 01-.858-.859V11.13a.86.86 0 01.857-.86h6.172a.86.86 0 01.857.86v3.953c0 .475.383.86.857.86z" fill="#FFF" fill-rule="evenodd"/></svg>